<svg version="1" xmlns="http://www.w3.org/2000/svg" width="498.667" height="498.667" viewBox="0 0 374.000000 374.000000"><path d="M0 187v187h374V0H0v187zm100-.5V309h-3.1c-3.9 0-8.2-2.5-10.3-6-1.5-2.6-1.6-13-1.6-116.5 0-103.1.2-113.9 1.6-116.4 2.2-3.7 6.1-6 10.2-6.1h3.2v122.5zM219 69c15.1 3.2 19.3 4.6 28.6 9 12.8 6.2 20.5 13.8 25.2 25.3 3.8 9.1 5.4 22.5 3.9 33.8-1.7 14-11.9 28.4-26.5 37.4-3.4 2.1-6.2 3.9-6.2 4.1 0 .2 4.8 2.7 10.6 5.6 18.9 9.4 30.9 23.3 34.3 39.6 1.7 8 1.4 28.3-.5 35.6-6.7 25.9-28.9 40.8-67.9 45.6-5.5.7-22.3 1-43.5.8l-34.5-.3-.3-118c-.1-64.9 0-118.6.3-119.4.4-1.1 6.4-1.3 35.8-.8 21.7.3 37.3.9 40.7 1.7z"/><path d="M160.1 82.4c-.8.9-1 14-.9 46.7l.3 45.4 26-.1c26.8 0 30.8-.5 43-4.6 17.9-6.2 27.5-16.6 30.4-33 .9-5.4.8-8.4-.4-16-1.8-11.2-4.9-17.8-11.2-24C235 84.9 218.8 81 180.9 81c-15.4 0-19.9.3-20.8 1.4zM160.4 190.3c-2.2 1.2-2.1 98.9.1 100.7 1.2 1 8.5 1.1 32.3.7 27.1-.4 31.6-.7 38.7-2.6 18.6-4.9 29.9-13 36.2-25.9l3.8-7.6v-15c0-13.4-.3-15.7-2.3-20.8-5-12.4-15.5-21.5-30.6-26.5-8-2.7-8.5-2.7-42.4-3.3-18.9-.3-35-.1-35.8.3z"/></svg>